<?xml version="1.0" encoding="utf-8"?>
<!-- Generator: Adobe Illustrator 21.0.0, SVG Export Plug-In . SVG Version: 6.00 Build 0)  -->
<svg version="1.1" id="Layer_1" xmlns="http://www.w3.org/2000/svg" xmlns:xlink="http://www.w3.org/1999/xlink" x="0px" y="0px"
	 viewBox="0 0 1000 1000" style="enable-background:new 0 0 1000 1000;" xml:space="preserve">
<style type="text/css">
	.st0{fill:#900814;}
	.st1{fill:#FFFFFF;}
</style>
<g>
	<g>
		<path class="st0" d="M242.3,564.3c-6.3,16.2-14.7,30.9-28.3,41.8c-13.3,10.7-29.4,15.4-45.9,18.9c0.1,0.7,0.2,1.4,0.3,2.1
			c2.8,1.1,5.5,2.3,8.3,3.3c14.1,5.1,24.7,14.4,32.6,26.9c6.9,11,10.2,23.1,9.7,35.9c-0.5,11.4-4.2,22.1-10.5,31.7
			c-3,4.6-2.1,8.4,0.7,12.8c6.1,9.5,9.5,20.1,9.8,31.2c0.6,20.3,0.1,40.6,0.3,61c0,5.1-1.9,6.9-6.9,6.8c-11.5-0.2-23.1-0.3-34.6,0
			c-5.6,0.2-7.6-1.7-7.5-7.4c0.3-19.3,0.1-38.7,0.1-58c0-9-7.5-16.7-16.5-16.8c-14.1-0.1-28.1,0.1-42.2-0.1
			c-5.1-0.1-6.9,2.1-6.9,7.1c0.1,22.9-0.1,45.7,0.1,68.6c0,4.9-1,6.9-6.4,6.7c-13.2-0.4-26.5-0.1-40.5-0.1c0-2.7,0-4.8,0-6.9
			c0-65.5,0.1-130.9-0.1-196.4c0-5.5,1.6-6.8,6.9-6.8c24.4,0.3,48.9,0.1,73.3,0.1c3,0,6-0.4,9-2c-15.1-6.1-30.3-12.1-45.4-18.2
			c0.1-0.5,0.2-1,0.3-1.5c4.4-0.9,8.7-2.1,13.1-2.6c16.2-1.8,26.9-11.5,36.2-23.9c11.8-15.6,15.8-34.5,22.6-52.1
			c7.1-18.4,17.1-34.9,34.4-45.2c17-10.1,35.3-10.7,53.8-3.9c16.8,6.1,31.7,15.4,45.5,26.7c14.3,11.7,29.5,22.4,48,26.2
			c9.1,1.9,19.8,4.1,27-4.4c8.8-10.3,12.2-22.5,9.7-36.3c-3.1-17.5-12.9-31.1-24.8-43.3c-15.5-15.9-22.3-34.6-18.9-56.5
			c2.1-13.1,8.4-24.7,16.3-35.2c2.3-3.1,2.1-4.8-0.4-7.4c-9.5-9.8-13.7-21.6-12.4-35.2c0.2-2.5,1.3-5,2.3-8.5
			c12.3,21.4,32,29.6,53,36c18.6,5.7,36.3,13.1,49.3,28.5c6,7.1,9.1,15.4,8.2,24.8c-0.5,5.1-2.6,6.1-6.7,3.2
			c-10.8-7.7-22.5-11.7-35.9-11.3c-16.2,0.5-25.8,14.5-19.6,29.7c3.4,8.4,8.9,16.6,15.2,23.2c14.1,14.7,29.6,28,43.8,42.5
			c11.8,12.1,17.4,27.2,18.6,44.1c1.5,22.1-6.4,41.1-17.6,59.4c-6.7,10.8-11.4,22.5-10.9,35.8c0.2,5.2,2.3,7.3,7.5,7.3
			c14.9-0.2,29.7-0.1,44.6-0.1c17.5,0,32.3,6.8,44.4,18.8c12,12,18.1,27.1,18.2,44.1c0.2,26.4-0.3,52.8,0.2,79.2
			c0.4,18-4.9,34-16.5,47.2c-8.8,10-20.5,16.7-33.9,19c-5.9,1-12,1.5-18,1.5c-29.1,0.1-58.2,0-87.4,0.2c-4.5,0-6.1-1.1-6.1-5.8
			c0.1-66.1,0.1-132.1,0-198.2c0-4.4,1-6.7,5.9-6.1c3.5,0.4,5.6-1,5.5-4.9c-0.2-13.9-0.3-27.7-0.4-41.6c0-0.7-0.4-1.3-1.8-2.2
			c-1.1,4-2.3,7.9-3.3,11.9c-0.8,3.6-1.1,7.3-2.2,10.8c-0.4,1.2-2.3,2.8-3.5,2.8c-6.6-0.1-13.2-0.2-19.8-1c-9.8-1.2-19.8-2-29.2-4.7
			c-14.8-4.3-29.2-10.1-43.8-15.2c-1.7-0.6-4.2-0.7-5.5,0.2c-9.8,6.4-15.7,24.3-12,35.4c2.1,6.4,5.1,8.5,12.1,8.6
			c26,0,52,0.2,78-0.1c5.7-0.1,7.4,1.6,7.2,7.3c-0.4,10.9-0.4,21.9,0,32.8c0.2,5.6-1.5,7.4-7.2,7.3c-27.9-0.3-55.9,0.2-83.8-0.2
			c-18.7-0.3-23.8,12.2-23.2,26.4c0.2,5.7,4.1,7.2,9.3,7.2c32.2-0.1,64.5-0.1,96.7-0.1c8.1,0,8.1,0,8.1,7.9
			c0,11.1-0.2,22.3,0.1,33.4c0.1,4.8-1.6,5.9-6.1,5.9c-32.8-0.2-65.7-0.1-98.5-0.1c-8.3,0-10,1.5-9.7,9.9
			c0.5,16.6,7.1,25.4,25.4,25.3c27-0.1,53.9,0,80.9,0c7.9,0,7.9,0,7.9,8.2c0,11.1-0.1,22.3,0.1,33.4c0.1,3.9-1.1,5.5-5.3,5.5
			c-31.9-0.1-63.7,0.7-95.6-0.4c-21.3-0.7-38.3-10.9-50-29.6c-6.5-10.5-9.4-21.5-9.3-33.7c0.2-27.4,0.4-54.7-0.1-82.1
			c-0.2-15.1,4.3-28.2,13-40.2c1.1-1.5,2.1-3.5,2.1-5.2c-0.4-17.5-1-35-1.4-52.6c-0.2-7.2,0-14.5-0.1-21.7c0-2-0.3-4.1-0.5-6.1
			C243.9,564.9,243.1,564.6,242.3,564.3z M519.1,732.2c0-13.3,0.1-26.6,0-39.9c-0.1-8.9-8.7-18.1-17.3-18.3
			c-14.5-0.2-28.9,0-43.4-0.1c-4.5,0-6.3,2.1-6.3,6.4c0,33.8,0,67.6,0,101.4c0,5.3,2.7,8,7.9,8c13.3,0,26.6,0.2,39.9-0.1
			c11.4-0.3,19.2-8.6,19.2-20C519.1,757.2,519.1,744.7,519.1,732.2z M131.6,707.4c6.8,0,13.7,0.1,20.5,0c8.4-0.1,17.2-6.6,18.1-12.8
			c2-13.6-6.8-19.8-17.4-20.4c-14-0.8-28.1-0.2-42.1-0.2c-4.1,0-6.1,1.9-6,6.1c0.1,7,0.1,14,0,21.1c-0.1,4.5,2.1,6.3,6.4,6.3
			C117.9,707.3,124.8,707.4,131.6,707.4z M398.9,349.9c7,10.2,18.8,15.6,26.2,12.4C417.2,356.8,411.4,347.7,398.9,349.9z"/>
		<path class="st0" d="M84.5,359.4c77.5-21.4,151.3-15.6,220.1,29.1c0.3-0.5,0.5-1,0.8-1.5c-6.6-5.6-13-11.5-19.9-16.7
			c-18.1-13.5-38.6-22.3-59.8-29.5c-15.7-5.3-31.8-9.8-48.7-10.5c-18.4-0.8-36.8-3.3-55.2-3.1c-13.6,0.1-27.2,3.1-40.8,4.9
			c-4.9,0.6-9.8,1.3-16.2,2.1c9.8-11,17.8-21.4,19.2-35.6c1.4-14.9-5.8-25.2-17-35.9c59.4,3.4,115,15.6,166,45.4
			c-5.7-9.4-14.6-15.1-23.5-20.5c-26.3-16.4-54.4-29-84.2-37.6c-16.7-4.8-33.7-8.8-50.5-13.2c-0.5-0.1-1-0.5-0.7-0.4
			c10.5-10.8,22.4-20.7,31.3-32.8c8.8-12,14.7-26.2,22.2-40.1c0.9,1.3,2.3,2.7,2.8,4.3c6.7,20.9,18.7,38.6,32.7,55.4
			c14.3,17.2,31.5,30.6,50.3,41.9c16.8,10.1,35,17.7,54.3,22.2c4.6,1.1,7.4,7.2,6.9,11.8c-2.9,26.5,4.9,55.9,38.1,64.6
			c3.2,0.8,6.4,1.5,9.7,1.8c3.9,0.4,4.4,2.4,3.2,5.7c-5.1,14.9-6,30.3,1,44.4c5.2,10.4,13.4,19.3,20.6,28.7
			c6.7,8.8,14.9,16.6,20.5,26c6.7,11.3,4,25-4.3,32.2c-1.3,1.1-2.9,2.3-4.5,2.4c-15.3,1.7-30-0.4-43-9.2
			c-13.7-9.2-26.6-19.5-40.3-28.6c-16.9-11.2-35.1-19.1-56-18.6c-10.4,0.2-20.7,0.3-31.1-0.1c-2.7-0.1-6.5-1.7-7.8-3.8
			c-3.7-6-8.5-10-15.4-11.5c-0.5-0.1-1-0.6-1.4-1.1c-0.2-0.3-0.3-0.7-0.9-2c48.5-22.9,92.7-9.6,136.1,14.8
			c-21.6-22.7-47.9-37.3-78.4-43c-30.7-5.7-60.8-3-89,13.8c-2.2-14-5.1-26.5-14.7-36.4C107.9,369.9,96.3,364.7,84.5,359.4z"/>
		<path class="st0" d="M579.1,732.2c0-32.4,0-64.9,0-97.3c0-8.1,0-8.1,7.9-8.1c29.7,0,59.4,0.2,89.1-0.1
			c17.9-0.1,32.8,6.5,45.5,18.8c13.6,13.1,19.2,29.5,18.9,47.8c-0.2,11.6-4.4,22.4-10.7,32.2c-2.6,4-2.1,7.4,0.3,11.3
			c8.6,13.8,11.9,28.4,9.2,44.9c-4.4,27.4-20.5,44-45.8,52.7c-5,1.7-10.7,2.2-16.1,2.3c-30.3,0.2-60.6-0.1-90.8,0.2
			c-5.8,0.1-7.7-1.4-7.6-7.4C579.3,797,579.1,764.6,579.1,732.2z M654,754.5c-6.8,0-13.7,0.2-20.5-0.1c-5.4-0.2-7.3,2.2-7.2,7.4
			c0.2,6.6,0.3,13.3,0,19.9c-0.3,5.7,2.7,7.8,7.7,7.9c6.2,0.2,12.5,0.3,18.7,0c8.9-0.3,17.9-0.2,26.6-1.8c10-1.8,13.8-9.1,12.5-20.4
			c-0.7-6.2-9.3-12.9-16.7-13C668.1,754.4,661,754.5,654,754.5z M653.6,707.4c6.8,0,13.7,0.3,20.5-0.1c9-0.5,19.2-6.8,17.9-17.9
			c-0.9-7.8-7.5-15-17-15.2c-14.3-0.4-28.5-0.1-42.8-0.1c-3.8,0-5.9,1.7-5.8,5.7c0,7.2,0,14.5,0,21.7c0,4.1,1.9,6.1,6.1,6
			C639.5,707.3,646.6,707.4,653.6,707.4z"/>
		<path class="st0" d="M862.4,756c0-24.6,0-49.2,0-73.9c0-7.4-0.7-8.1-8-8.1c-11.7,0-23.5-0.1-35.2,0.1c-4,0.1-5.6-1.2-5.6-5.3
			c0.2-12.3,0.2-24.6,0-36.9c0-3.9,1.5-5.1,5.2-5c44.7,0.1,89.5,0.1,134.2,0c4.3,0,5.3,1.6,5.2,5.5c-0.2,12.1-0.3,24.2,0,36.3
			c0.1,4.6-1.7,5.6-5.9,5.5c-10.9-0.2-21.9-0.1-32.8-0.1c-9.7,0-10,0.3-10,9.8c0,48.5,0,96.9,0,145.4c0,7.6,0,7.6-7.6,7.6
			c-10.9,0-21.9-0.3-32.8,0.1c-5.7,0.2-6.8-1.9-6.8-7C862.5,805.2,862.4,780.6,862.4,756z"/>
		<path class="st0" d="M753.4,731.7c0-32.6,0.1-65.2-0.1-97.9c0-5.7,1.7-7.4,7.3-7.2c10.7,0.4,21.5,0.1,32.2,0.1
			c7.3,0,7.9,0.5,7.9,8.1c0,37.3,0,74.6,0,111.9c0,27.3,0,54.7,0,82c0,7.6-0.3,7.8-8,7.8c-10.9,0-21.9-0.3-32.8,0.1
			c-5.3,0.2-6.5-1.7-6.5-6.7C753.6,797.4,753.5,764.5,753.4,731.7C753.5,731.7,753.5,731.7,753.4,731.7z"/>
		<path class="st0" d="M66.4,489.8c5.1,53.3,34.6,73.1,81.3,75.4c-2.9,7.5-8.8,12-14.4,16.5c-10.5,8.5-23,11-36.2,9.6
			c-12.3-1.3-21.1-8.7-28-18.3c-8-11.2-11.4-23.8-11.5-37.8C57.6,519.7,59.6,505,66.4,489.8z"/>
	</g>
</g>
<rect x="-272" y="205" class="st0" width="129" height="129"/>
<rect x="-272" y="376" class="st1" width="129" height="129"/>
<rect x="-272" y="541" width="129" height="129"/>
</svg>
